<?xml version="1.0" encoding="UTF-8"?><svg id="Calque_2" xmlns="http://www.w3.org/2000/svg" viewBox="0 0 285.82 315.09"><defs><style>.cls-1{fill:#2d58f3;}</style></defs><g id="Calque_1-2"><g><path class="cls-1" d="m254.03,283.21c-26.55,20.02-59.59,31.88-95.4,31.88C71.02,315.09,0,244.07,0,156.46,0,77.8,57.26,12.51,132.37,0c-38.4,28.95-63.23,74.95-63.23,126.74,0,87.61,71.02,158.63,158.63,158.63,8.95,0,17.71-.74,26.26-2.16Z"/><polygon class="cls-1" points="243.59 158.36 251.3 192.88 285.82 200.59 251.3 208.3 243.59 242.82 235.88 208.3 201.36 200.59 235.88 192.88 243.59 158.36"/><polygon class="cls-1" points="138.84 136.83 144.06 160.18 167.41 165.4 144.06 170.61 138.84 193.96 133.63 170.61 110.28 165.4 133.63 160.18 138.84 136.83"/><polygon class="cls-1" points="201.36 9.73 214.29 67.6 272.16 80.52 214.29 93.45 201.36 151.32 188.43 93.45 130.56 80.52 188.43 67.6 201.36 9.73"/></g></g></svg>