<?xml version="1.0" encoding="UTF-8"?><svg id="Calque_2" xmlns="http://www.w3.org/2000/svg" xmlns:xlink="http://www.w3.org/1999/xlink" viewBox="0 0 222.95 183.52"><defs><style>.cls-1{mask:url(#mask);}.cls-2{fill:#fff;}.cls-3{fill:#2d58f3;}.cls-4{fill:none;stroke:#2d58f3;stroke-width:4px;}</style><mask id="mask" x="0" y="100.44" width="223" height="84" maskUnits="userSpaceOnUse"><g id="path-2-outside-1_332_427"><rect class="cls-2" x="0" y="100.44" width="223" height="84"/><path d="m38.62,117.27c1.63-1.92,2.64-4.13,2.64-6.29,0-5.09-2.35-8.54-9.98-8.54H2v33.6h30.72c7.63,0,10.94-4.42,10.94-9.94,0-3.65-2.11-6.72-5.04-8.83Zm-24.14-6.67h11.52c1.25,0,2.78,0,2.78,1.82s-1.54,1.82-2.78,1.82h-11.52v-3.65Zm13.92,16.32h-13.92v-3.55h13.92c1.25,0,2.78,0,2.78,1.78s-1.54,1.78-2.78,1.78Zm52.25-14.88v-9.6h-35.52v33.6h35.52v-9.6h-23.04v-3.12h23.04v-8.16h-23.04v-3.12h23.04Zm33.58,24h13.73l-13.92-33.6h-18.53l-13.92,33.6h13.73l2.3-6.05h14.3l2.3,6.05Zm-13.34-14.69l3.89-10.27,3.89,10.27h-7.78Zm66.46-2.16v-16.75h-12.48v16.75c0,3.55-1.3,6.77-8.64,6.77s-8.64-3.17-8.64-6.77v-16.75h-12.48v16.75c0,11.71,6.34,17.33,21.12,17.33s21.12-5.66,21.12-17.33Zm1.44,16.85h16.32l8.45-9.6,8.45,9.6h16.32l-15.89-16.8,15.89-16.8h-16.32l-8.45,9.6-8.45-9.6h-16.32l15.89,16.8-15.89,16.8Zm-127.51,24.26c0-7.49-5.23-12.86-12.86-12.86H2v33.6h12.48v-7.87h7.34l4.66,7.87h14.78l-5.95-9.65c3.7-2.16,5.95-6.19,5.95-11.09Zm-26.78-2.3h11.52c1.25,0,2.78,0,2.78,2.3s-1.54,2.3-2.78,2.3h-11.52v-4.61Zm55.9-13.44v-6.72l-9.94-3.84-9.94,3.84v6.72l9.94-3.84,9.94,3.84Zm7.82,12.48v-9.6h-35.52v33.6h35.52v-9.6h-23.04v-3.12h23.04v-8.16h-23.04v-3.12h23.04Zm33.58-9.6l-9.46,24.96-9.46-24.96h-13.73l13.92,33.6h18.53l13.92-33.6h-13.73Zm50.23,9.6v-9.6h-35.52v33.6h35.52v-9.6h-23.04v-3.12h23.04v-8.16h-23.04v-3.12h23.04Zm.94,12.14c0,9.98,7.68,12.34,21.46,12.34s21.46-2.35,21.46-11.62c0-8.78-8.21-9.7-21.46-10.22-7.3-.29-8.5-.24-8.5-1.54s1.2-1.58,7.06-1.58,8.98.38,8.98,2.16h12.48c0-8.59-7.39-11.76-20.5-11.76s-20.5,3.17-20.5,10.56c0,7.82,5.81,10.32,20.98,10.8,7.87.24,8.98.43,8.98,1.87,0,1.25-1.1,1.73-8.5,1.73-7.92,0-9.46-1.1-9.46-2.74h-12.48Z"/></g></mask></defs><g id="Calque_1-2"><g><path class="cls-3" d="m51.46,13.44h-15.36l-10.37,19.2L15.36,13.44H0v33.6h12.48v-15.98l9.17,15.98h8.16l9.17-15.98v15.98h12.48V13.44Z"/><path class="cls-3" d="m95.63,30.19V13.44h-12.48v16.75c0,3.55-1.3,6.77-8.64,6.77s-8.64-3.17-8.64-6.77V13.44h-12.48v16.75c0,11.71,6.34,17.33,21.12,17.33s21.12-5.66,21.12-17.33Z"/><path class="cls-3" d="m97.07,35.18c0,9.98,7.68,12.34,21.46,12.34s21.46-2.35,21.46-11.62c0-8.78-8.21-9.7-21.46-10.22-7.3-.29-8.5-.24-8.5-1.54s1.2-1.58,7.06-1.58,8.98.38,8.98,2.16h12.48c0-8.59-7.39-11.76-20.5-11.76s-20.5,3.17-20.5,10.56c0,7.82,5.81,10.32,20.98,10.8,7.87.24,8.98.43,8.98,1.87,0,1.25-1.1,1.73-8.5,1.73-7.92,0-9.46-1.1-9.46-2.74h-12.48Z"/><path class="cls-3" d="m168.49,0l-18.67,3.84v6.72l18.67-3.84V0Zm8.45,23.04v-9.6h-35.52v33.6h35.52v-9.6h-23.04v-3.12h23.04v-8.16h-23.04v-3.12h23.04Z"/><path class="cls-3" d="m213.88,23.04v-9.6h-35.52v33.6h35.52v-9.6h-23.04v-3.12h23.04v-8.16h-23.04v-3.12h23.04Z"/><path class="cls-3" d="m24.96,58.44H0v33.6h24.96c8.11,0,15.74-5.38,15.74-16.8s-7.63-16.8-15.74-16.8Zm-3.84,23.04h-8.64v-12.48h8.64c2.69,0,7.1,0,7.1,6.24s-4.42,6.24-7.1,6.24Z"/><path class="cls-3" d="m77.66,68.04v-9.6h-35.52v33.6h35.52v-9.6h-23.04v-3.12h23.04v-8.16h-23.04v-3.12h23.04Z"/><path class="cls-3" d="m78.6,80.18c0,9.98,7.68,12.34,21.46,12.34s21.46-2.35,21.46-11.62c0-8.78-8.21-9.7-21.46-10.22-7.3-.29-8.5-.24-8.5-1.54s1.2-1.58,7.06-1.58,8.98.38,8.98,2.16h12.48c0-8.59-7.39-11.76-20.5-11.76s-20.5,3.17-20.5,10.56c0,7.82,5.81,10.32,20.98,10.8,7.87.24,8.98.43,8.98,1.87,0,1.25-1.1,1.73-8.5,1.73-7.92,0-9.46-1.1-9.46-2.74h-12.48Z"/><g class="cls-1"><path class="cls-4" d="m38.62,117.27c1.63-1.92,2.64-4.13,2.64-6.29,0-5.09-2.35-8.54-9.98-8.54H2v33.6h30.72c7.63,0,10.94-4.42,10.94-9.94,0-3.65-2.11-6.72-5.04-8.83Zm-24.14-6.67h11.52c1.25,0,2.78,0,2.78,1.82s-1.54,1.82-2.78,1.82h-11.52v-3.65Zm13.92,16.32h-13.92v-3.55h13.92c1.25,0,2.78,0,2.78,1.78s-1.54,1.78-2.78,1.78Zm52.25-14.88v-9.6h-35.52v33.6h35.52v-9.6h-23.04v-3.12h23.04v-8.16h-23.04v-3.12h23.04Zm33.58,24h13.73l-13.92-33.6h-18.53l-13.92,33.6h13.73l2.3-6.05h14.3l2.3,6.05Zm-13.34-14.69l3.89-10.27,3.89,10.27h-7.78Zm66.46-2.16v-16.75h-12.48v16.75c0,3.55-1.3,6.77-8.64,6.77s-8.64-3.17-8.64-6.77v-16.75h-12.48v16.75c0,11.71,6.34,17.33,21.12,17.33s21.12-5.66,21.12-17.33Zm1.44,16.85h16.32l8.45-9.6,8.45,9.6h16.32l-15.89-16.8,15.89-16.8h-16.32l-8.45,9.6-8.45-9.6h-16.32l15.89,16.8-15.89,16.8Zm-127.51,24.26c0-7.49-5.23-12.86-12.86-12.86H2v33.6h12.48v-7.87h7.34l4.66,7.87h14.78l-5.95-9.65c3.7-2.16,5.95-6.19,5.95-11.09Zm-26.78-2.3h11.52c1.25,0,2.78,0,2.78,2.3s-1.54,2.3-2.78,2.3h-11.52v-4.61Zm55.9-13.44v-6.72l-9.94-3.84-9.94,3.84v6.72l9.94-3.84,9.94,3.84Zm7.82,12.48v-9.6h-35.52v33.6h35.52v-9.6h-23.04v-3.12h23.04v-8.16h-23.04v-3.12h23.04Zm33.58-9.6l-9.46,24.96-9.46-24.96h-13.73l13.92,33.6h18.53l13.92-33.6h-13.73Zm50.23,9.6v-9.6h-35.52v33.6h35.52v-9.6h-23.04v-3.12h23.04v-8.16h-23.04v-3.12h23.04Zm.94,12.14c0,9.98,7.68,12.34,21.46,12.34s21.46-2.35,21.46-11.62c0-8.78-8.21-9.7-21.46-10.22-7.3-.29-8.5-.24-8.5-1.54s1.2-1.58,7.06-1.58,8.98.38,8.98,2.16h12.48c0-8.59-7.39-11.76-20.5-11.76s-20.5,3.17-20.5,10.56c0,7.82,5.81,10.32,20.98,10.8,7.87.24,8.98.43,8.98,1.87,0,1.25-1.1,1.73-8.5,1.73-7.92,0-9.46-1.1-9.46-2.74h-12.48Z"/></g></g></g></svg>