<svg width="294" height="190" viewBox="0 0 294 190" fill="none" xmlns="http://www.w3.org/2000/svg">
<path d="M52.416 14.4H37.056L26.688 33.6L16.32 14.4H0.959961V48H13.44V32.016L22.608 48H30.768L39.936 32.016V48H52.416V14.4Z" fill="#2D58F3"/>
<path d="M96.5906 31.152V14.4H84.1106V31.152C84.1106 34.704 82.8146 37.92 75.4706 37.92C68.1266 37.92 66.8306 34.752 66.8306 31.152V14.4H54.3506V31.152C54.3506 42.864 60.6866 48.48 75.4706 48.48C90.2066 48.48 96.5906 42.816 96.5906 31.152Z" fill="#2D58F3"/>
<path d="M98.0268 36.144C98.0268 46.128 105.707 48.48 119.483 48.48C133.259 48.48 140.939 46.128 140.939 36.864C140.939 28.08 132.731 27.168 119.483 26.64C112.187 26.352 110.987 26.4 110.987 25.104C110.987 23.808 112.187 23.52 118.043 23.52C124.139 23.52 127.019 23.904 127.019 25.68H139.499C139.499 17.088 132.107 13.92 119.003 13.92C105.755 13.92 98.5068 17.088 98.5068 24.48C98.5068 32.304 104.315 34.8 119.483 35.28C127.355 35.52 128.459 35.712 128.459 37.152C128.459 38.4 127.355 38.88 119.963 38.88C112.043 38.88 110.507 37.776 110.507 36.144H98.0268Z" fill="#2D58F3"/>
<path d="M169.454 0.959961L150.782 4.79996V11.52L169.454 7.67996V0.959961ZM177.902 24V14.4H142.382V48H177.902V38.4H154.862V35.28H177.902V27.12H154.862V24H177.902Z" fill="#2D58F3"/>
<path d="M214.839 24V14.4H179.319V48H214.839V38.4H191.799V35.28H214.839V27.12H191.799V24H214.839Z" fill="#2D58F3"/>
<path d="M25.92 59.4H0.959961V93H25.92C34.032 93 41.664 87.624 41.664 76.2C41.664 64.776 34.032 59.4 25.92 59.4ZM22.08 82.44H13.44V69.96H22.08C24.768 69.96 29.184 69.96 29.184 76.2C29.184 82.44 24.768 82.44 22.08 82.44Z" fill="#2D58F3"/>
<path d="M78.6206 69V59.4H43.1006V93H78.6206V83.4H55.5806V80.28H78.6206V72.12H55.5806V69H78.6206Z" fill="#2D58F3"/>
<path d="M79.5581 81.144C79.5581 91.128 87.2381 93.48 101.014 93.48C114.79 93.48 122.47 91.128 122.47 81.864C122.47 73.08 114.262 72.168 101.014 71.64C93.7181 71.352 92.5181 71.4 92.5181 70.104C92.5181 68.808 93.7181 68.52 99.5741 68.52C105.67 68.52 108.55 68.904 108.55 70.68H121.03C121.03 62.088 113.638 58.92 100.534 58.92C87.2861 58.92 80.0381 62.088 80.0381 69.48C80.0381 77.304 85.8461 79.8 101.014 80.28C108.886 80.52 109.99 80.712 109.99 82.152C109.99 83.4 108.886 83.88 101.494 83.88C93.5741 83.88 92.0381 82.776 92.0381 81.144H79.5581Z" fill="#2D58F3"/>
<mask id="path-2-outside-1_332_427" maskUnits="userSpaceOnUse" x="0.959961" y="101.4" width="223" height="84" fill="black">
<rect fill="white" x="0.959961" y="101.4" width="223" height="84"/>
<path d="M39.584 118.232C41.216 116.312 42.224 114.104 42.224 111.944C42.224 106.856 39.872 103.4 32.24 103.4H2.95996V137H33.68C41.312 137 44.624 132.584 44.624 127.064C44.624 123.416 42.512 120.344 39.584 118.232ZM15.44 111.56H26.96C28.208 111.56 29.744 111.56 29.744 113.384C29.744 115.208 28.208 115.208 26.96 115.208H15.44V111.56ZM29.36 127.88H15.44V124.328H29.36C30.608 124.328 32.144 124.328 32.144 126.104C32.144 127.88 30.608 127.88 29.36 127.88ZM81.605 113V103.4H46.085V137H81.605V127.4H58.565V124.28H81.605V116.12H58.565V113H81.605ZM115.182 137H128.91L114.99 103.4H96.4625L82.5425 137H96.2705L98.5745 130.952H112.878L115.182 137ZM101.838 122.312L105.726 112.04L109.614 122.312H101.838ZM168.294 120.152V103.4H155.814V120.152C155.814 123.704 154.518 126.92 147.174 126.92C139.83 126.92 138.534 123.752 138.534 120.152V103.4H126.054V120.152C126.054 131.864 132.39 137.48 147.174 137.48C161.91 137.48 168.294 131.816 168.294 120.152ZM169.73 137H186.05L194.498 127.4L202.946 137H219.266L203.378 120.2L219.266 103.4H202.946L194.498 113L186.05 103.4H169.73L185.618 120.2L169.73 137ZM42.224 161.264C42.224 153.776 36.992 148.4 29.36 148.4H2.95996V182H15.44V174.128H22.784L27.44 182H42.224L36.272 172.352C39.968 170.192 42.224 166.16 42.224 161.264ZM15.44 158.96H26.96C28.208 158.96 29.744 158.96 29.744 161.264C29.744 163.568 28.208 163.568 26.96 163.568H15.44V158.96ZM71.3435 145.52V138.8L61.4075 134.96L51.4715 138.8V145.52L61.4075 141.68L71.3435 145.52ZM79.1675 158V148.4H43.6475V182H79.1675V172.4H56.1275V169.28H79.1675V161.12H56.1275V158H79.1675ZM112.745 148.4L103.289 173.36L93.833 148.4H80.105L94.025 182H112.553L126.473 148.4H112.745ZM162.98 158V148.4H127.46V182H162.98V172.4H139.94V169.28H162.98V161.12H139.94V158H162.98ZM163.917 170.144C163.917 180.128 171.597 182.48 185.373 182.48C199.149 182.48 206.829 180.128 206.829 170.864C206.829 162.08 198.621 161.168 185.373 160.64C178.077 160.352 176.877 160.4 176.877 159.104C176.877 157.808 178.077 157.52 183.933 157.52C190.029 157.52 192.909 157.904 192.909 159.68H205.389C205.389 151.088 197.997 147.92 184.893 147.92C171.645 147.92 164.397 151.088 164.397 158.48C164.397 166.304 170.205 168.8 185.373 169.28C193.245 169.52 194.349 169.712 194.349 171.152C194.349 172.4 193.245 172.88 185.853 172.88C177.933 172.88 176.397 171.776 176.397 170.144H163.917Z"/>
</mask>
<path d="M39.584 118.232C41.216 116.312 42.224 114.104 42.224 111.944C42.224 106.856 39.872 103.4 32.24 103.4H2.95996V137H33.68C41.312 137 44.624 132.584 44.624 127.064C44.624 123.416 42.512 120.344 39.584 118.232ZM15.44 111.56H26.96C28.208 111.56 29.744 111.56 29.744 113.384C29.744 115.208 28.208 115.208 26.96 115.208H15.44V111.56ZM29.36 127.88H15.44V124.328H29.36C30.608 124.328 32.144 124.328 32.144 126.104C32.144 127.88 30.608 127.88 29.36 127.88ZM81.605 113V103.4H46.085V137H81.605V127.4H58.565V124.28H81.605V116.12H58.565V113H81.605ZM115.182 137H128.91L114.99 103.4H96.4625L82.5425 137H96.2705L98.5745 130.952H112.878L115.182 137ZM101.838 122.312L105.726 112.04L109.614 122.312H101.838ZM168.294 120.152V103.4H155.814V120.152C155.814 123.704 154.518 126.92 147.174 126.92C139.83 126.92 138.534 123.752 138.534 120.152V103.4H126.054V120.152C126.054 131.864 132.39 137.48 147.174 137.48C161.91 137.48 168.294 131.816 168.294 120.152ZM169.73 137H186.05L194.498 127.4L202.946 137H219.266L203.378 120.2L219.266 103.4H202.946L194.498 113L186.05 103.4H169.73L185.618 120.2L169.73 137ZM42.224 161.264C42.224 153.776 36.992 148.4 29.36 148.4H2.95996V182H15.44V174.128H22.784L27.44 182H42.224L36.272 172.352C39.968 170.192 42.224 166.16 42.224 161.264ZM15.44 158.96H26.96C28.208 158.96 29.744 158.96 29.744 161.264C29.744 163.568 28.208 163.568 26.96 163.568H15.44V158.96ZM71.3435 145.52V138.8L61.4075 134.96L51.4715 138.8V145.52L61.4075 141.68L71.3435 145.52ZM79.1675 158V148.4H43.6475V182H79.1675V172.4H56.1275V169.28H79.1675V161.12H56.1275V158H79.1675ZM112.745 148.4L103.289 173.36L93.833 148.4H80.105L94.025 182H112.553L126.473 148.4H112.745ZM162.98 158V148.4H127.46V182H162.98V172.4H139.94V169.28H162.98V161.12H139.94V158H162.98ZM163.917 170.144C163.917 180.128 171.597 182.48 185.373 182.48C199.149 182.48 206.829 180.128 206.829 170.864C206.829 162.08 198.621 161.168 185.373 160.64C178.077 160.352 176.877 160.4 176.877 159.104C176.877 157.808 178.077 157.52 183.933 157.52C190.029 157.52 192.909 157.904 192.909 159.68H205.389C205.389 151.088 197.997 147.92 184.893 147.92C171.645 147.92 164.397 151.088 164.397 158.48C164.397 166.304 170.205 168.8 185.373 169.28C193.245 169.52 194.349 169.712 194.349 171.152C194.349 172.4 193.245 172.88 185.853 172.88C177.933 172.88 176.397 171.776 176.397 170.144H163.917Z" stroke="#2D58F3" stroke-width="4" mask="url(#path-2-outside-1_332_427)"/>
</svg>
