<svg width="41" height="38" viewBox="0 0 41 38" fill="none" xmlns="http://www.w3.org/2000/svg">
<path d="M28.7014 38C35.9321 34.7341 41 27.6366 41 19C41 10.3634 35.9321 3.26589 28.7014 0V4.22222C33.595 7.14822 36.8998 12.7659 36.8998 19C36.8998 25.2341 33.595 30.8518 28.7014 33.7778V38Z" fill="#2D58F3"/>
<path d="M28.7014 8.44444V29.5556C31.2128 27.2333 32.8016 22.7388 32.8016 19C32.8016 15.2612 31.2128 10.7667 28.7014 8.44444ZM4.1002 29.5556H9.62933L21.4133 37.6453C21.7224 37.8567 22.0813 37.9781 22.4519 37.9967C22.8226 38.0153 23.1912 37.9304 23.5188 37.7509C23.846 37.5705 24.1195 37.302 24.3101 36.9741C24.5008 36.6462 24.6014 36.2711 24.6012 35.8889V2.11111C24.601 1.72924 24.5003 1.35458 24.3096 1.02703C24.119 0.699472 23.8457 0.431292 23.5188 0.25105C23.1919 0.0708088 22.8236 -0.0147447 22.4532 0.00350209C22.0828 0.0217488 21.7241 0.143112 21.4154 0.354667L9.62933 8.44444H4.1002C1.83894 8.44444 0 10.3381 0 12.6667V25.3333C0 27.6619 1.83894 29.5556 4.1002 29.5556Z" fill="#2D58F3"/>
</svg>
